<svg height="452pt" viewBox="-15 0 452 452.24" width="452pt" xmlns="http://www.w3.org/2000/svg"><path d="m421.71875 75.699219v336.320312h-86.480469l-.429687-.121093 82.0625-282.636719-184.460938-53.5625zm0 0" fill="#00acea"/><path d="m213.550781 70.230469 18.859375 5.46875 184.460938 53.5625-82.0625 282.636719-11.707032 40.339843-322.980468-93.769531 93.769531-322.980469 82.4375 23.933594zm0 0" fill="#00efd1"/><path d="m196.648438 155.71875c-13.75 0-24.898438-11.148438-24.898438-24.898438v-33.242187c0-4.417969 3.582031-8 8-8s8 3.582031 8 8v33.242187c0 4.914063 3.984375 8.898438 8.898438 8.898438 4.917968 0 8.902343-3.984375 8.902343-8.898438v-105.921874c-.007812-4.910157-3.988281-8.890626-8.902343-8.898438h-3.378907c-4.914062.007812-8.894531 3.988281-8.898437 8.898438v34.371093c0 4.417969-3.582032 8-8 8-4.417969 0-8-3.582031-8-8v-34.371093c.015625-13.742188 11.152344-24.882813 24.898437-24.898438h3.378907c13.746093.015625 24.886718 11.15625 24.902343 24.898438v105.921874c-.015625 13.746094-11.15625 24.882813-24.902343 24.898438zm0 0" fill="#f4b844"/></svg>